<svg width="49" height="37" viewBox="0 0 49 37" fill="curentColor" xmlns="http://www.w3.org/2000/svg">
<path fill-rule="evenodd" clip-rule="evenodd" d="M20.013 2.01C20.0722 1.45801 20.3334 0.947403 20.7464 0.576361C21.1593 0.205319 21.6948 4.03124e-05 22.25 0H27.25C27.8052 4.03124e-05 28.3407 0.205319 28.7536 0.576361C29.1666 0.947403 29.4278 1.45801 29.487 2.01C30.251 2.026 30.91 2.065 31.474 2.169C32.232 2.309 32.877 2.573 33.402 3.099C34.004 3.7 34.262 4.459 34.384 5.359C34.5 6.225 34.5 7.328 34.5 8.695V14.805C34.5 16.172 34.5 17.275 34.384 18.142C34.262 19.042 34.004 19.8 33.402 20.402C32.8 21.004 32.042 21.262 31.142 21.384C30.275 21.5 29.172 21.5 27.805 21.5H21.695C20.328 21.5 19.225 21.5 18.358 21.384C17.458 21.262 16.7 21.004 16.098 20.402C15.496 19.8 15.238 19.042 15.117 18.142C15 17.275 15 16.172 15 14.805V8.695C15 7.328 15 6.225 15.117 5.358C15.237 4.458 15.497 3.7 16.098 3.098C16.623 2.573 17.268 2.308 18.026 2.169C18.59 2.065 19.25 2.026 20.013 2.01ZM20.015 3.51C19.297 3.526 18.743 3.562 18.297 3.644C17.731 3.748 17.402 3.916 17.159 4.159C16.882 4.436 16.702 4.824 16.603 5.559C16.502 6.313 16.5 7.315 16.5 8.75V14.75C16.5 16.185 16.502 17.186 16.603 17.942C16.702 18.676 16.883 19.064 17.159 19.341C17.436 19.618 17.824 19.798 18.559 19.897C19.313 19.998 20.315 20 21.75 20H27.75C29.185 20 30.186 19.998 30.942 19.897C31.676 19.798 32.064 19.617 32.341 19.341C32.618 19.064 32.798 18.676 32.897 17.941C32.998 17.186 33 16.185 33 14.75V8.75C33 7.315 32.998 6.313 32.897 5.558C32.798 4.824 32.617 4.436 32.341 4.159C32.097 3.916 31.769 3.749 31.203 3.644C30.757 3.562 30.203 3.526 29.485 3.511C29.421 4.05885 29.158 4.56411 28.746 4.9308C28.334 5.29749 27.8016 5.50005 27.25 5.5H22.25C21.6983 5.50002 21.1658 5.29732 20.7537 4.93043C20.3416 4.56354 20.0788 4.05803 20.015 3.51ZM22.25 1.5C22.0511 1.5 21.8603 1.57902 21.7197 1.71967C21.579 1.86032 21.5 2.05109 21.5 2.25V3.25C21.5 3.664 21.836 4 22.25 4H27.25C27.4489 4 27.6397 3.92098 27.7803 3.78033C27.921 3.63968 28 3.44891 28 3.25V2.25C28 2.05109 27.921 1.86032 27.7803 1.71967C27.6397 1.57902 27.4489 1.5 27.25 1.5H22.25ZM19 9.25C19 9.05109 19.079 8.86032 19.2197 8.71967C19.3603 8.57902 19.5511 8.5 19.75 8.5H29.75C29.9489 8.5 30.1397 8.57902 30.2803 8.71967C30.421 8.86032 30.5 9.05109 30.5 9.25C30.5 9.44891 30.421 9.63968 30.2803 9.78033C30.1397 9.92098 29.9489 10 29.75 10H19.75C19.5511 10 19.3603 9.92098 19.2197 9.78033C19.079 9.63968 19 9.44891 19 9.25ZM20 12.75C20 12.5511 20.079 12.3603 20.2197 12.2197C20.3603 12.079 20.5511 12 20.75 12H28.75C28.9489 12 29.1397 12.079 29.2803 12.2197C29.421 12.3603 29.5 12.5511 29.5 12.75C29.5 12.9489 29.421 13.1397 29.2803 13.2803C29.1397 13.421 28.9489 13.5 28.75 13.5H20.75C20.5511 13.5 20.3603 13.421 20.2197 13.2803C20.079 13.1397 20 12.9489 20 12.75ZM21 16.25C21 16.0511 21.079 15.8603 21.2197 15.7197C21.3603 15.579 21.5511 15.5 21.75 15.5H27.75C27.9489 15.5 28.1397 15.579 28.2803 15.7197C28.421 15.8603 28.5 16.0511 28.5 16.25C28.5 16.4489 28.421 16.6397 28.2803 16.7803C28.1397 16.921 27.9489 17 27.75 17H21.75C21.5511 17 21.3603 16.921 21.2197 16.7803C21.079 16.6397 21 16.4489 21 16.25Z" fill="currentColor"/>
<path d="M15.3302 26.02C16.0635 26.02 16.7069 26.1633 17.2602 26.45C17.8202 26.7367 18.2502 27.1467 18.5502 27.68C18.8569 28.2067 19.0102 28.82 19.0102 29.52C19.0102 30.22 18.8569 30.8333 18.5502 31.36C18.2502 31.88 17.8202 32.2833 17.2602 32.57C16.7069 32.8567 16.0635 33 15.3302 33H12.8902V26.02H15.3302ZM15.2802 31.81C16.0135 31.81 16.5802 31.61 16.9802 31.21C17.3802 30.81 17.5802 30.2467 17.5802 29.52C17.5802 28.7933 17.3802 28.2267 16.9802 27.82C16.5802 27.4067 16.0135 27.2 15.2802 27.2H14.2902V31.81H15.2802ZM19.6982 30.21C19.6982 29.65 19.8082 29.1533 20.0282 28.72C20.2548 28.2867 20.5582 27.9533 20.9382 27.72C21.3248 27.4867 21.7548 27.37 22.2282 27.37C22.6415 27.37 23.0015 27.4533 23.3082 27.62C23.6215 27.7867 23.8715 27.9967 24.0582 28.25V27.46H25.4682V33H24.0582V32.19C23.8782 32.45 23.6282 32.6667 23.3082 32.84C22.9948 33.0067 22.6315 33.09 22.2182 33.09C21.7515 33.09 21.3248 32.97 20.9382 32.73C20.5582 32.49 20.2548 32.1533 20.0282 31.72C19.8082 31.28 19.6982 30.7767 19.6982 30.21ZM24.0582 30.23C24.0582 29.89 23.9915 29.6 23.8582 29.36C23.7248 29.1133 23.5448 28.9267 23.3182 28.8C23.0915 28.6667 22.8482 28.6 22.5882 28.6C22.3282 28.6 22.0882 28.6633 21.8682 28.79C21.6482 28.9167 21.4682 29.1033 21.3282 29.35C21.1948 29.59 21.1282 29.8767 21.1282 30.21C21.1282 30.5433 21.1948 30.8367 21.3282 31.09C21.4682 31.3367 21.6482 31.5267 21.8682 31.66C22.0948 31.7933 22.3348 31.86 22.5882 31.86C22.8482 31.86 23.0915 31.7967 23.3182 31.67C23.5448 31.5367 23.7248 31.35 23.8582 31.11C23.9915 30.8633 24.0582 30.57 24.0582 30.23ZM28.4655 28.61V31.29C28.4655 31.4767 28.5088 31.6133 28.5955 31.7C28.6888 31.78 28.8422 31.82 29.0555 31.82H29.7055V33H28.8255C27.6455 33 27.0555 32.4267 27.0555 31.28V28.61H26.3955V27.46H27.0555V26.09H28.4655V27.46H29.7055V28.61H28.4655ZM30.3525 30.21C30.3525 29.65 30.4625 29.1533 30.6825 28.72C30.9091 28.2867 31.2125 27.9533 31.5925 27.72C31.9791 27.4867 32.4091 27.37 32.8825 27.37C33.2958 27.37 33.6558 27.4533 33.9625 27.62C34.2758 27.7867 34.5258 27.9967 34.7125 28.25V27.46H36.1225V33H34.7125V32.19C34.5325 32.45 34.2825 32.6667 33.9625 32.84C33.6491 33.0067 33.2858 33.09 32.8725 33.09C32.4058 33.09 31.9791 32.97 31.5925 32.73C31.2125 32.49 30.9091 32.1533 30.6825 31.72C30.4625 31.28 30.3525 30.7767 30.3525 30.21ZM34.7125 30.23C34.7125 29.89 34.6458 29.6 34.5125 29.36C34.3791 29.1133 34.1991 28.9267 33.9725 28.8C33.7458 28.6667 33.5025 28.6 33.2425 28.6C32.9825 28.6 32.7425 28.6633 32.5225 28.79C32.3025 28.9167 32.1225 29.1033 31.9825 29.35C31.8491 29.59 31.7825 29.8767 31.7825 30.21C31.7825 30.5433 31.8491 30.8367 31.9825 31.09C32.1225 31.3367 32.3025 31.5267 32.5225 31.66C32.7491 31.7933 32.9891 31.86 33.2425 31.86C33.5025 31.86 33.7458 31.7967 33.9725 31.67C34.1991 31.5367 34.3791 31.35 34.5125 31.11C34.6458 30.8633 34.7125 30.57 34.7125 30.23Z" fill="currentColor"/>
</svg>
