<svg width="51" height="33" viewBox="0 0 51 33" fill="currentColor" xmlns="http://www.w3.org/2000/svg">
<path d="M24.5 8H19.5C19.2167 8 18.9793 7.904 18.788 7.712C18.5967 7.52 18.5007 7.28267 18.5 7C18.4993 6.71733 18.5953 6.48 18.788 6.288C18.9807 6.096 19.218 6 19.5 6H24.5V1C24.5 0.71667 24.596 0.479337 24.788 0.288003C24.98 0.0966702 25.2173 0.000670115 25.5 3.44827e-06C25.7827 -0.000663218 26.0203 0.0953369 26.213 0.288003C26.4057 0.48067 26.5013 0.718003 26.5 1V6H31.5C31.7833 6 32.021 6.096 32.213 6.288C32.405 6.48 32.5007 6.71733 32.5 7C32.4993 7.28267 32.4033 7.52033 32.212 7.713C32.0207 7.90567 31.7833 8.00133 31.5 8H26.5V13C26.5 13.2833 26.404 13.521 26.212 13.713C26.02 13.905 25.7827 14.0007 25.5 14C25.2173 13.9993 24.98 13.9033 24.788 13.712C24.596 13.5207 24.5 13.2833 24.5 13V8Z" fill="currentColor"/>
<path d="M9.34332 22.02V23.15H7.48332V29H6.08332V23.15H4.22332V22.02H9.34332ZM10.0048 26.21C10.0048 25.65 10.1148 25.1533 10.3348 24.72C10.5615 24.2867 10.8648 23.9533 11.2448 23.72C11.6315 23.4867 12.0615 23.37 12.5348 23.37C12.9481 23.37 13.3081 23.4533 13.6148 23.62C13.9281 23.7867 14.1781 23.9967 14.3648 24.25V23.46H15.7748V29H14.3648V28.19C14.1848 28.45 13.9348 28.6667 13.6148 28.84C13.3015 29.0067 12.9381 29.09 12.5248 29.09C12.0581 29.09 11.6315 28.97 11.2448 28.73C10.8648 28.49 10.5615 28.1533 10.3348 27.72C10.1148 27.28 10.0048 26.7767 10.0048 26.21ZM14.3648 26.23C14.3648 25.89 14.2981 25.6 14.1648 25.36C14.0315 25.1133 13.8515 24.9267 13.6248 24.8C13.3981 24.6667 13.1548 24.6 12.8948 24.6C12.6348 24.6 12.3948 24.6633 12.1748 24.79C11.9548 24.9167 11.7748 25.1033 11.6348 25.35C11.5015 25.59 11.4348 25.8767 11.4348 26.21C11.4348 26.5433 11.5015 26.8367 11.6348 27.09C11.7748 27.3367 11.9548 27.5267 12.1748 27.66C12.4015 27.7933 12.6415 27.86 12.8948 27.86C13.1548 27.86 13.3981 27.7967 13.6248 27.67C13.8515 27.5367 14.0315 27.35 14.1648 27.11C14.2981 26.8633 14.3648 26.57 14.3648 26.23ZM24.0221 23.38C24.7021 23.38 25.2488 23.59 25.6621 24.01C26.0821 24.4233 26.2921 25.0033 26.2921 25.75V29H24.8921V25.94C24.8921 25.5067 24.7821 25.1767 24.5621 24.95C24.3421 24.7167 24.0421 24.6 23.6621 24.6C23.2821 24.6 22.9788 24.7167 22.7521 24.95C22.5321 25.1767 22.4221 25.5067 22.4221 25.94V29H21.0221V25.94C21.0221 25.5067 20.9121 25.1767 20.6921 24.95C20.4721 24.7167 20.1721 24.6 19.7921 24.6C19.4055 24.6 19.0988 24.7167 18.8721 24.95C18.6521 25.1767 18.5421 25.5067 18.5421 25.94V29H17.1421V23.46H18.5421V24.13C18.7221 23.8967 18.9521 23.7133 19.2321 23.58C19.5188 23.4467 19.8321 23.38 20.1721 23.38C20.6055 23.38 20.9921 23.4733 21.3321 23.66C21.6721 23.84 21.9355 24.1 22.1221 24.44C22.3021 24.12 22.5621 23.8633 22.9021 23.67C23.2488 23.4767 23.6221 23.38 24.0221 23.38ZM29.0207 24.27C29.2007 24.0033 29.4473 23.7867 29.7607 23.62C30.0807 23.4533 30.444 23.37 30.8507 23.37C31.324 23.37 31.7507 23.4867 32.1307 23.72C32.5173 23.9533 32.8207 24.2867 33.0407 24.72C33.2673 25.1467 33.3807 25.6433 33.3807 26.21C33.3807 26.7767 33.2673 27.28 33.0407 27.72C32.8207 28.1533 32.5173 28.49 32.1307 28.73C31.7507 28.97 31.324 29.09 30.8507 29.09C30.4373 29.09 30.074 29.01 29.7607 28.85C29.454 28.6833 29.2073 28.47 29.0207 28.21V29H27.6207V21.6H29.0207V24.27ZM31.9507 26.21C31.9507 25.8767 31.8807 25.59 31.7407 25.35C31.6073 25.1033 31.4273 24.9167 31.2007 24.79C30.9807 24.6633 30.7407 24.6 30.4807 24.6C30.2273 24.6 29.9873 24.6667 29.7607 24.8C29.5407 24.9267 29.3607 25.1133 29.2207 25.36C29.0873 25.6067 29.0207 25.8967 29.0207 26.23C29.0207 26.5633 29.0873 26.8533 29.2207 27.1C29.3607 27.3467 29.5407 27.5367 29.7607 27.67C29.9873 27.7967 30.2273 27.86 30.4807 27.86C30.7407 27.86 30.9807 27.7933 31.2007 27.66C31.4273 27.5267 31.6073 27.3367 31.7407 27.09C31.8807 26.8433 31.9507 26.55 31.9507 26.21ZM34.038 26.21C34.038 25.65 34.148 25.1533 34.368 24.72C34.5947 24.2867 34.898 23.9533 35.278 23.72C35.6647 23.4867 36.0947 23.37 36.568 23.37C36.9813 23.37 37.3413 23.4533 37.648 23.62C37.9613 23.7867 38.2113 23.9967 38.398 24.25V23.46H39.808V29H38.398V28.19C38.218 28.45 37.968 28.6667 37.648 28.84C37.3347 29.0067 36.9713 29.09 36.558 29.09C36.0913 29.09 35.6647 28.97 35.278 28.73C34.898 28.49 34.5947 28.1533 34.368 27.72C34.148 27.28 34.038 26.7767 34.038 26.21ZM38.398 26.23C38.398 25.89 38.3313 25.6 38.198 25.36C38.0647 25.1133 37.8847 24.9267 37.658 24.8C37.4313 24.6667 37.188 24.6 36.928 24.6C36.668 24.6 36.428 24.6633 36.208 24.79C35.988 24.9167 35.808 25.1033 35.668 25.35C35.5347 25.59 35.468 25.8767 35.468 26.21C35.468 26.5433 35.5347 26.8367 35.668 27.09C35.808 27.3367 35.988 27.5267 36.208 27.66C36.4347 27.7933 36.6747 27.86 36.928 27.86C37.188 27.86 37.4313 27.7967 37.658 27.67C37.8847 27.5367 38.0647 27.35 38.198 27.11C38.3313 26.8633 38.398 26.57 38.398 26.23ZM44.2954 23.38C44.7154 23.38 45.0887 23.4733 45.4154 23.66C45.742 23.84 45.9954 24.11 46.1754 24.47C46.362 24.8233 46.4554 25.25 46.4554 25.75V29H45.0554V25.94C45.0554 25.5 44.9454 25.1633 44.7254 24.93C44.5054 24.69 44.2054 24.57 43.8254 24.57C43.4387 24.57 43.132 24.69 42.9054 24.93C42.6854 25.1633 42.5754 25.5 42.5754 25.94V29H41.1754V21.6H42.5754V24.15C42.7554 23.91 42.9954 23.7233 43.2954 23.59C43.5954 23.45 43.9287 23.38 44.2954 23.38Z" fill="currentColor"/>
</svg>
