<svg width="49" height="35" viewBox="0 0 49 35" fill="none" xmlns="http://www.w3.org/2000/svg">
<path d="M3.17129 31.07C2.68462 31.07 2.24462 30.9867 1.85129 30.82C1.46462 30.6533 1.15796 30.4133 0.931289 30.1C0.704622 29.7867 0.587956 29.4167 0.581289 28.99H2.08129C2.10129 29.2767 2.20129 29.5033 2.38129 29.67C2.56796 29.8367 2.82129 29.92 3.14129 29.92C3.46796 29.92 3.72462 29.8433 3.91129 29.69C4.09796 29.53 4.19129 29.3233 4.19129 29.07C4.19129 28.8633 4.12796 28.6933 4.00129 28.56C3.87462 28.4267 3.71462 28.3233 3.52129 28.25C3.33462 28.17 3.07462 28.0833 2.74129 27.99C2.28796 27.8567 1.91796 27.7267 1.63129 27.6C1.35129 27.4667 1.10796 27.27 0.901289 27.01C0.701289 26.7433 0.601289 26.39 0.601289 25.95C0.601289 25.5367 0.704622 25.1767 0.911289 24.87C1.11796 24.5633 1.40796 24.33 1.78129 24.17C2.15462 24.0033 2.58129 23.92 3.06129 23.92C3.78129 23.92 4.36462 24.0967 4.81129 24.45C5.26462 24.7967 5.51462 25.2833 5.56129 25.91H4.02129C4.00796 25.67 3.90462 25.4733 3.71129 25.32C3.52462 25.16 3.27462 25.08 2.96129 25.08C2.68796 25.08 2.46796 25.15 2.30129 25.29C2.14129 25.43 2.06129 25.6333 2.06129 25.9C2.06129 26.0867 2.12129 26.2433 2.24129 26.37C2.36796 26.49 2.52129 26.59 2.70129 26.67C2.88796 26.7433 3.14796 26.83 3.48129 26.93C3.93462 27.0633 4.30462 27.1967 4.59129 27.33C4.87796 27.4633 5.12462 27.6633 5.33129 27.93C5.53796 28.1967 5.64129 28.5467 5.64129 28.98C5.64129 29.3533 5.54462 29.7 5.35129 30.02C5.15796 30.34 4.87462 30.5967 4.50129 30.79C4.12796 30.9767 3.68462 31.07 3.17129 31.07ZM11.605 24.02V25.15H9.74504V31H8.34504V25.15H6.48504V24.02H11.605ZM16.9065 29.67H14.1265L13.6665 31H12.1965L14.7065 24.01H16.3365L18.8465 31H17.3665L16.9065 29.67ZM16.5265 28.55L15.5165 25.63L14.5065 28.55H16.5265ZM24.5347 24.02V25.15H22.6747V31H21.2747V25.15H19.4147V24.02H24.5347ZM26.9562 24.02V31H25.5562V24.02H26.9562ZM30.7494 31.07C30.2627 31.07 29.8227 30.9867 29.4294 30.82C29.0427 30.6533 28.7361 30.4133 28.5094 30.1C28.2827 29.7867 28.1661 29.4167 28.1594 28.99H29.6594C29.6794 29.2767 29.7794 29.5033 29.9594 29.67C30.1461 29.8367 30.3994 29.92 30.7194 29.92C31.0461 29.92 31.3027 29.8433 31.4894 29.69C31.6761 29.53 31.7694 29.3233 31.7694 29.07C31.7694 28.8633 31.7061 28.6933 31.5794 28.56C31.4527 28.4267 31.2927 28.3233 31.0994 28.25C30.9127 28.17 30.6527 28.0833 30.3194 27.99C29.8661 27.8567 29.4961 27.7267 29.2094 27.6C28.9294 27.4667 28.6861 27.27 28.4794 27.01C28.2794 26.7433 28.1794 26.39 28.1794 25.95C28.1794 25.5367 28.2827 25.1767 28.4894 24.87C28.6961 24.5633 28.9861 24.33 29.3594 24.17C29.7327 24.0033 30.1594 23.92 30.6394 23.92C31.3594 23.92 31.9427 24.0967 32.3894 24.45C32.8427 24.7967 33.0927 25.2833 33.1394 25.91H31.5994C31.5861 25.67 31.4827 25.4733 31.2894 25.32C31.1027 25.16 30.8527 25.08 30.5394 25.08C30.2661 25.08 30.0461 25.15 29.8794 25.29C29.7194 25.43 29.6394 25.6333 29.6394 25.9C29.6394 26.0867 29.6994 26.2433 29.8194 26.37C29.9461 26.49 30.0994 26.59 30.2794 26.67C30.4661 26.7433 30.7261 26.83 31.0594 26.93C31.5127 27.0633 31.8827 27.1967 32.1694 27.33C32.4561 27.4633 32.7027 27.6633 32.9094 27.93C33.1161 28.1967 33.2194 28.5467 33.2194 28.98C33.2194 29.3533 33.1227 29.7 32.9294 30.02C32.7361 30.34 32.4527 30.5967 32.0794 30.79C31.7061 30.9767 31.2627 31.07 30.7494 31.07ZM39.1832 24.02V25.15H37.3232V31H35.9232V25.15H34.0632V24.02H39.1832ZM41.6046 24.02V31H40.2046V24.02H41.6046ZM46.9279 31L44.3879 27.89V31H42.9879V24.02H44.3879V27.15L46.9279 24.02H48.6179L45.7379 27.48L48.6979 31H46.9279Z" fill="currentColor"/>
<path d="M17 1V15.2222C17 15.6937 17.1873 16.1459 17.5207 16.4793C17.8541 16.8127 18.3063 17 18.7778 17H33" stroke="currentColor" stroke-width="2" stroke-miterlimit="5.759" stroke-linecap="round" stroke-linejoin="round"/>
<path d="M20.5555 10.7778L24.1111 7.22224L27.6667 10.7778L33 5.44446" stroke="currentColor" stroke-width="2" stroke-miterlimit="5.759" stroke-linecap="round" stroke-linejoin="round"/>
<path d="M30.3334 5.44446H33V8.11112" stroke="currentColor" stroke-width="2" stroke-linecap="round" stroke-linejoin="round"/>
</svg>
