<svg width="49" height="36" viewBox="0 0 49 36" fill="currentColor" xmlns="http://www.w3.org/2000/svg">
<path d="M16.3596 30.67H13.5796L13.1196 32H11.6496L14.1596 25.01H15.7896L18.2996 32H16.8196L16.3596 30.67ZM15.9796 29.55L14.9696 26.63L13.9596 29.55H15.9796ZM22.5179 32L20.6379 29.64V32H19.2379V24.6H20.6379V28.81L22.4979 26.46H24.3179L21.8779 29.24L24.3379 32H22.5179ZM30.3077 26.46V32H28.8977V31.3C28.7177 31.54 28.481 31.73 28.1877 31.87C27.901 32.0033 27.5877 32.07 27.2477 32.07C26.8144 32.07 26.431 31.98 26.0977 31.8C25.7644 31.6133 25.501 31.3433 25.3077 30.99C25.121 30.63 25.0277 30.2033 25.0277 29.71V26.46H26.4277V29.51C26.4277 29.95 26.5377 30.29 26.7577 30.53C26.9777 30.7633 27.2777 30.88 27.6577 30.88C28.0444 30.88 28.3477 30.7633 28.5677 30.53C28.7877 30.29 28.8977 29.95 28.8977 29.51V26.46H30.3077ZM34.759 26.38C35.419 26.38 35.9524 26.59 36.359 27.01C36.7657 27.4233 36.969 28.0033 36.969 28.75V32H35.569V28.94C35.569 28.5 35.459 28.1633 35.239 27.93C35.019 27.69 34.719 27.57 34.339 27.57C33.9524 27.57 33.6457 27.69 33.419 27.93C33.199 28.1633 33.089 28.5 33.089 28.94V32H31.689V26.46H33.089V27.15C33.2757 26.91 33.5124 26.7233 33.799 26.59C34.0924 26.45 34.4124 26.38 34.759 26.38Z" fill="currentColor"/>
<path d="M23.345 20C22.895 20 22.5077 19.85 22.183 19.55C21.8583 19.25 21.6623 18.8833 21.595 18.45L21.37 16.8C21.1533 16.7167 20.9493 16.6167 20.758 16.5C20.5667 16.3833 20.379 16.2583 20.195 16.125L18.645 16.775C18.2283 16.9583 17.8117 16.975 17.395 16.825C16.9783 16.675 16.6533 16.4083 16.42 16.025L15.245 13.975C15.0117 13.5917 14.945 13.1833 15.045 12.75C15.145 12.3167 15.37 11.9583 15.72 11.675L17.045 10.675C17.0283 10.5583 17.02 10.4457 17.02 10.337V9.662C17.02 9.554 17.0283 9.44167 17.045 9.325L15.72 8.325C15.37 8.04167 15.145 7.68333 15.045 7.25C14.945 6.81667 15.0117 6.40833 15.245 6.025L16.42 3.975C16.6533 3.59167 16.9783 3.325 17.395 3.175C17.8117 3.025 18.2283 3.04167 18.645 3.225L20.195 3.875C20.3783 3.74167 20.57 3.61667 20.77 3.5C20.97 3.38333 21.17 3.28333 21.37 3.2L21.595 1.55C21.6617 1.11667 21.8577 0.75 22.183 0.45C22.5083 0.15 22.8957 0 23.345 0H25.695C26.145 0 26.5327 0.15 26.858 0.45C27.1833 0.75 27.379 1.11667 27.445 1.55L27.67 3.2C27.8867 3.28333 28.091 3.38333 28.283 3.5C28.475 3.61667 28.6623 3.74167 28.845 3.875L30.395 3.225C30.8117 3.04167 31.2283 3.025 31.645 3.175C32.0617 3.325 32.3867 3.59167 32.62 3.975L33.795 6.025C34.0283 6.40833 34.095 6.81667 33.995 7.25C33.895 7.68333 33.67 8.04167 33.32 8.325L31.995 9.325C32.0117 9.44167 32.02 9.55433 32.02 9.663V10.337C32.02 10.4457 32.0033 10.5583 31.97 10.675L33.295 11.675C33.645 11.9583 33.87 12.3167 33.97 12.75C34.07 13.1833 34.0033 13.5917 33.77 13.975L32.57 16.025C32.3367 16.4083 32.0117 16.675 31.595 16.825C31.1783 16.975 30.7617 16.9583 30.345 16.775L28.845 16.125C28.6617 16.2583 28.47 16.3833 28.27 16.5C28.07 16.6167 27.87 16.7167 27.67 16.8L27.445 18.45C27.3783 18.8833 27.1827 19.25 26.858 19.55C26.5333 19.85 26.1457 20 25.695 20H23.345ZM24.57 13.5C25.5367 13.5 26.3617 13.1583 27.045 12.475C27.7283 11.7917 28.07 10.9667 28.07 10C28.07 9.03333 27.7283 8.20833 27.045 7.525C26.3617 6.84167 25.5367 6.5 24.57 6.5C23.5867 6.5 22.7573 6.84167 22.082 7.525C21.4067 8.20833 21.0693 9.03333 21.07 10C21.0707 10.9667 21.4083 11.7917 22.083 12.475C22.7577 13.1583 23.5867 13.5 24.57 13.5Z" fill="currentColor"/>
</svg>
