<svg width="63" height="39" viewBox="0 0 63 39" fill="none" xmlns="http://www.w3.org/2000/svg">
<path d="M12.7969 29.0156L13.162 28.0781L13.4531 29.0156L13.7245 27.922L13.5253 25.672C13.1616 26.0442 12.7031 26.5087 12.1312 27.0909L12.7969 29.0156ZM14.6016 11.1628C14.3112 10.8162 13.9785 10.5076 13.6111 10.2441C12.7995 9.68718 11.9509 9.35751 11.0292 9.20625C10.1503 9.06248 9.24844 9.07767 8.38875 9.21187C7.64944 9.32843 6.92636 9.53138 6.23438 9.81656C5.75071 10.014 5.28599 10.255 4.84594 10.5366C4.26919 10.9395 4.35698 10.8566 4.89047 10.6219C5.35813 10.4222 5.84293 10.2653 6.33891 10.1531C8.70267 9.92662 10.9519 9.79786 12.6281 11.4267C12.8509 11.6514 13.0443 11.9034 13.2037 12.1767C13.4247 12.5545 13.5696 12.9678 13.6566 13.3762L15.7983 13.5094C15.5624 12.6772 15.0832 11.7481 14.6016 11.1628ZM16.9477 12.4111C16.5478 11.7915 16.0807 11.2192 15.5573 10.7761C15.3312 10.5846 15.0827 10.4212 14.8172 10.2895C14.9423 10.4152 15.0619 10.545 15.1739 10.6795C15.3269 10.8608 15.4697 11.0503 15.6019 11.2472L15.6066 11.2537L15.6108 11.2603C16.0688 11.97 16.4153 12.8476 16.5848 13.5642L17.625 13.6252C17.4234 13.2075 17.1975 12.8019 16.9486 12.4106L16.9477 12.4111ZM18.3488 14.4267L21.63 22.8361L21.0759 24.1659L17.993 22.3875L17.618 23.0372L20.7848 24.8653L20.582 25.135L18.4744 24.9375L15.412 23.4623C15.2698 23.4239 15.1238 23.4014 14.9766 23.3953C14.7089 23.3953 14.5303 23.4919 14.3808 23.7056C14.2622 23.8748 10.7011 27.48 7.46016 30.75H0.75V18.9248L5.10234 19.1053L9.63094 17.5462L10.1058 17.0306C10.7378 17.3463 11.3349 17.7276 11.887 18.1683C12.0424 18.2895 12.2342 18.3545 12.4313 18.3525C13.0778 18.2787 13.4637 17.925 13.9702 17.5167C13.817 16.5209 13.655 15.4678 13.522 14.6058C13.2191 14.5048 12.9161 14.4038 12.6131 14.303L12.8189 14.0789L18.3488 14.4267ZM16.6027 17.4745C16.414 16.7852 15.6598 16.5639 15.1692 16.6242C15.0252 16.6445 14.8801 16.6911 14.7581 16.7498C14.7988 16.8947 14.8598 17.1187 14.9358 17.235C15.2417 17.6668 15.749 17.8865 16.2314 17.8214C16.4174 17.7899 16.6505 17.6491 16.6027 17.4745ZM19.4916 22.4184L20.3822 23.3559L20.9259 22.8403L20.0353 21.9028L19.4916 22.4184ZM22.2656 15.6089C22.2656 15.6089 20.3653 14.3058 19.5938 15.5527L20.1211 16.9041L22.2656 15.6089ZM13.7812 25.4086L14.4094 26.453L14.3906 24.7823C14.2364 24.9441 14.0377 25.1489 13.7836 25.4086H13.7812ZM12.3469 17.5805C12.6215 17.6682 13.1723 17.297 13.1592 17.205L12.8466 15.1739L11.5341 14.7375C10.7067 14.6034 8.80481 14.5036 8.38078 15.1725C10.2368 17.0349 10.2336 15.9633 12.3469 17.5805ZM18.3038 25.6847C17.586 25.3236 16.8582 24.9817 16.1344 24.6328C16.3759 26.0103 16.6451 27.3831 16.8727 28.763L18.0567 30.5128L17.9348 28.9191L18.75 29.513V28.1691L19.2277 26.2027L19.5403 25.6847H18.3038Z" fill="#F97A00"/>
<path d="M28.13 19L26.73 16.4H26.52V19H24.56V11.95H27.65C28.2167 11.95 28.6967 12.05 29.09 12.25C29.4833 12.4433 29.78 12.7133 29.98 13.06C30.18 13.4 30.28 13.7833 30.28 14.21C30.28 14.69 30.1467 15.1133 29.88 15.48C29.62 15.84 29.2367 16.0967 28.73 16.25L30.32 19H28.13ZM26.52 15.06H27.49C27.7567 15.06 27.9567 14.9967 28.09 14.87C28.2233 14.7433 28.29 14.56 28.29 14.32C28.29 14.0933 28.22 13.9167 28.08 13.79C27.9467 13.6567 27.75 13.59 27.49 13.59H26.52V15.06ZM35.6313 17.85H33.1313L32.7513 19H30.6913L33.2613 11.95H35.5213L38.0813 19H36.0113L35.6313 17.85ZM35.1413 16.35L34.3813 14.07L33.6313 16.35H35.1413ZM46.9502 11.95V19H44.9902V15.11L43.6602 19H42.0202L40.6802 15.08V19H38.7202V11.95H41.0902L42.8602 16.53L44.5902 11.95H46.9502ZM52.5259 17.85H50.0259L49.6459 19H47.5859L50.1559 11.95H52.4159L54.9759 19H52.9059L52.5259 17.85ZM52.0359 16.35L51.2759 14.07L50.5259 16.35H52.0359ZM62.1447 19H60.1847L57.5747 15.06V19H55.6147V11.95H57.5747L60.1847 15.94V11.95H62.1447V19Z" fill="#16610E"/>
<path d="M29.34 20.95V22.51H26.52V23.75H28.6V25.24H26.52V28H24.56V20.95H29.34ZM34.6255 26.85H32.1255L31.7455 28H29.6855L32.2555 20.95H34.5155L37.0755 28H35.0055L34.6255 26.85ZM34.1355 25.35L33.3755 23.07L32.6255 25.35H34.1355ZM41.2843 28L39.8843 25.4H39.6743V28H37.7143V20.95H40.8043C41.371 20.95 41.851 21.05 42.2443 21.25C42.6376 21.4433 42.9343 21.7133 43.1343 22.06C43.3343 22.4 43.4343 22.7833 43.4343 23.21C43.4343 23.69 43.301 24.1133 43.0343 24.48C42.7743 24.84 42.391 25.0967 41.8843 25.25L43.4743 28H41.2843ZM39.6743 24.06H40.6443C40.911 24.06 41.111 23.9967 41.2443 23.87C41.3776 23.7433 41.4443 23.56 41.4443 23.32C41.4443 23.0933 41.3743 22.9167 41.2343 22.79C41.101 22.6567 40.9043 22.59 40.6443 22.59H39.6743V24.06ZM52.5556 20.95V28H50.5956V24.11L49.2656 28H47.6256L46.2856 24.08V28H44.3256V20.95H46.6956L48.4656 25.53L50.1956 20.95H52.5556Z" fill="#16610E"/>
</svg>
