<svg width="50" height="50" viewBox="0 0 50 50" fill="none" xmlns="http://www.w3.org/2000/svg">
<path d="M26.6602 44.8242L27.4209 42.8711L28.0273 44.8242L28.5928 42.5459L28.1777 37.8584C27.4199 38.6338 26.4648 39.6016 25.2734 40.8145L26.6602 44.8242ZM30.4199 7.63086C29.8151 6.90883 29.1218 6.26576 28.3564 5.7168C26.6655 4.55664 24.8977 3.86982 22.9775 3.55469C21.1464 3.25517 19.2676 3.28681 17.4766 3.5664C15.9363 3.80923 14.4299 4.23205 12.9883 4.82617C11.9807 5.23754 11.0125 5.7396 10.0957 6.32617C8.89414 7.16572 9.07705 6.99297 10.1885 6.5039C11.1628 6.08792 12.1728 5.76106 13.2061 5.52734C18.1306 5.05547 22.8164 4.78721 26.3086 8.18066C26.7726 8.64882 27.1756 9.17382 27.5078 9.74316C27.9682 10.5303 28.27 11.3913 28.4512 12.2422L32.9131 12.5195C32.4217 10.7859 31.4232 8.85019 30.4199 7.63086ZM35.3076 10.2314C34.4745 8.94072 33.5015 7.74824 32.4111 6.82519C31.94 6.42622 31.4222 6.08584 30.8691 5.81152C31.1299 6.07324 31.3789 6.34375 31.6123 6.62402C31.931 7.00159 32.2286 7.39639 32.5039 7.80664L32.5137 7.82031L32.5225 7.83398C33.4768 9.3125 34.1986 11.1408 34.5518 12.6338L36.7188 12.7607C36.2987 11.8906 35.8282 11.0457 35.3096 10.2305L35.3076 10.2314ZM38.2266 14.4307L45.0625 31.9502L43.9082 34.7207L37.4854 31.0156L36.7041 32.3691L43.3018 36.1777L42.8792 36.7396L38.4883 36.3281L32.1084 33.2549C31.8121 33.1749 31.5078 33.128 31.2012 33.1152C30.6436 33.1152 30.2715 33.3164 29.96 33.7617C29.7129 34.1143 22.2939 41.625 15.542 48.4375H1.5625V23.8018L10.6299 24.1777L20.0645 20.9297L21.0537 19.8555C22.3704 20.5131 23.6143 21.3075 24.7646 22.2256C25.0882 22.4781 25.488 22.6135 25.8984 22.6094C27.2453 22.4557 28.0493 21.7187 29.1045 20.8682C28.7854 18.7936 28.4479 16.5996 28.1709 14.8037C27.5398 14.5933 26.9086 14.383 26.2773 14.1729L26.7061 13.7061L38.2266 14.4307ZM34.5889 20.7803C34.1959 19.3442 32.6246 18.8831 31.6025 19.0088C31.3024 19.051 31.0003 19.1481 30.7461 19.2705C30.8309 19.5723 30.958 20.0391 31.1162 20.2812C31.7536 21.1808 32.8104 21.6385 33.8154 21.5029C34.2028 21.4373 34.6885 21.1439 34.5889 20.7803ZM40.6074 31.0801L42.4629 33.0332L43.5957 31.959L41.7402 30.0059L40.6074 31.0801ZM46.3867 16.8936C46.3867 16.8936 42.4277 14.1787 40.8203 16.7764L41.9189 19.5918L46.3867 16.8936ZM28.7109 37.3096L30.0195 39.4853L29.9805 36.0049C29.6592 36.3418 29.2451 36.7686 28.7158 37.3096H28.7109ZM25.7227 21.001C26.2947 21.1838 27.4424 20.4103 27.415 20.2187L26.7637 15.9873L24.0293 15.0781C22.3057 14.7987 18.3434 14.5909 17.46 15.9844C21.3268 19.8645 21.3199 17.6318 25.7227 21.001ZM38.1328 37.8848C36.6374 37.1324 35.1213 36.4203 33.6133 35.6934C34.1165 38.5632 34.6772 41.423 35.1514 44.2978L37.6182 47.9434L37.3643 44.623L39.0625 45.8603V43.0605L40.0576 38.9639L40.709 37.8848H38.1328Z" fill="#F97A00"/>
</svg>
