<svg width="178" height="40" viewBox="0 0 178 40" fill="none" xmlns="http://www.w3.org/2000/svg">
<path d="M21.3281 35.8594L21.9367 34.2969L22.4219 35.8594L22.8742 34.0367L22.5422 30.2867C21.9359 30.907 21.1719 31.6812 20.2188 32.6516L21.3281 35.8594ZM24.3359 6.10469C23.8521 5.52706 23.2975 5.01261 22.6852 4.57344C21.3324 3.64531 19.9181 3.09586 18.382 2.84375C16.9171 2.60414 15.4141 2.62945 13.9813 2.85312C12.7491 3.04739 11.5439 3.38564 10.3906 3.86094C9.58452 4.19003 8.80998 4.59168 8.07656 5.06094C7.11531 5.73258 7.26164 5.59437 8.15078 5.20312C8.93022 4.87034 9.73821 4.60885 10.5648 4.42187C14.5045 4.04437 18.2531 3.82976 21.0469 6.54453C21.4181 6.91905 21.7405 7.33906 22.0062 7.79453C22.3745 8.42422 22.616 9.11305 22.7609 9.79375L26.3305 10.0156C25.9373 8.62875 25.1386 7.08016 24.3359 6.10469ZM28.2461 8.18516C27.5796 7.15258 26.8012 6.19859 25.9289 5.46016C25.552 5.14097 25.1378 4.86867 24.6953 4.64922C24.9039 4.85859 25.1031 5.075 25.2898 5.29922C25.5448 5.60127 25.7829 5.91711 26.0031 6.24531L26.0109 6.25625L26.018 6.26719C26.7814 7.45 27.3589 8.91266 27.6414 10.107L29.375 10.2086C29.039 9.51247 28.6625 8.83658 28.2477 8.18437L28.2461 8.18516ZM30.5812 11.5445L36.05 25.5602L35.1266 27.7766L29.9883 24.8125L29.3633 25.8953L34.6414 28.9422L34.3034 29.3917L30.7906 29.0625L25.6867 26.6039C25.4497 26.5399 25.2063 26.5024 24.9609 26.4922C24.5148 26.4922 24.2172 26.6531 23.968 27.0094C23.7703 27.2914 17.8352 33.3 12.4336 38.75H1.25V19.0414L8.50391 19.3422L16.0516 16.7437L16.843 15.8844C17.8964 16.4105 18.8914 17.046 19.8117 17.7805C20.0706 17.9825 20.3904 18.0908 20.7188 18.0875C21.7963 17.9645 22.4395 17.375 23.2836 16.6945C23.0284 15.0348 22.7583 13.2797 22.5367 11.843C22.0318 11.6746 21.5269 11.5064 21.0219 11.3383L21.3648 10.9648L30.5812 11.5445ZM27.6711 16.6242C27.3567 15.4754 26.0997 15.1065 25.282 15.207C25.042 15.2408 24.8002 15.3185 24.5969 15.4164C24.6647 15.6578 24.7664 16.0312 24.893 16.225C25.4029 16.9446 26.2483 17.3108 27.0523 17.2023C27.3623 17.1498 27.7508 16.9152 27.6711 16.6242ZM32.4859 24.8641L33.9703 26.4266L34.8766 25.5672L33.3922 24.0047L32.4859 24.8641ZM37.1094 13.5148C37.1094 13.5148 33.9422 11.343 32.6562 13.4211L33.5352 15.6734L37.1094 13.5148ZM22.9688 29.8477L24.0156 31.5883L23.9844 28.8039C23.7273 29.0734 23.3961 29.4148 22.9727 29.8477H22.9688ZM20.5781 16.8008C21.0358 16.947 21.9539 16.3283 21.932 16.175L21.4109 12.7898L19.2234 12.0625C17.8445 11.839 14.6747 11.6727 13.968 12.7875C17.0614 15.8916 17.0559 14.1055 20.5781 16.8008ZM30.5063 30.3078C29.3099 29.7059 28.097 29.1362 26.8906 28.5547C27.2932 30.8505 27.7418 33.1384 28.1211 35.4383L30.0945 38.3547L29.8914 35.6984L31.25 36.6883V34.4484L32.0461 31.1711L32.5672 30.3078H30.5063Z" fill="white"/>
<path d="M48.7672 32L45.8472 26.7H45.0272V32H41.6072V17.96H47.3472C48.4539 17.96 49.3939 18.1533 50.1672 18.54C50.9539 18.9267 51.5405 19.46 51.9272 20.14C52.3139 20.8067 52.5072 21.5533 52.5072 22.38C52.5072 23.3133 52.2405 24.1467 51.7072 24.88C51.1872 25.6133 50.4139 26.1333 49.3872 26.44L52.6272 32H48.7672ZM45.0272 24.28H47.1472C47.7739 24.28 48.2405 24.1267 48.5472 23.82C48.8672 23.5133 49.0272 23.08 49.0272 22.52C49.0272 21.9867 48.8672 21.5667 48.5472 21.26C48.2405 20.9533 47.7739 20.8 47.1472 20.8H45.0272V24.28ZM63.3941 29.52H58.1541L57.3141 32H53.7341L58.8141 17.96H62.7741L67.8541 32H64.2341L63.3941 29.52ZM62.5141 26.88L60.7741 21.74L59.0541 26.88H62.5141ZM85.3002 17.96V32H81.8802V23.58L78.7402 32H75.9802L72.8202 23.56V32H69.4002V17.96H73.4402L77.3802 27.68L81.2802 17.96H85.3002ZM96.4995 29.52H91.2595L90.4195 32H86.8395L91.9195 17.96H95.8795L100.96 32H97.3395L96.4995 29.52ZM95.6195 26.88L93.8795 21.74L92.1595 26.88H95.6195ZM115.066 32H111.646L105.926 23.34V32H102.506V17.96H105.926L111.646 26.66V17.96H115.066V32ZM130.923 17.96V20.7H125.203V23.66H129.483V26.32H125.203V32H121.783V17.96H130.923ZM141.46 29.52H136.22L135.38 32H131.8L136.88 17.96H140.84L145.92 32H142.3L141.46 29.52ZM140.58 26.88L138.84 21.74L137.12 26.88H140.58ZM154.627 32L151.707 26.7H150.887V32H147.467V17.96H153.207C154.313 17.96 155.253 18.1533 156.027 18.54C156.813 18.9267 157.4 19.46 157.787 20.14C158.173 20.8067 158.367 21.5533 158.367 22.38C158.367 23.3133 158.1 24.1467 157.567 24.88C157.047 25.6133 156.273 26.1333 155.247 26.44L158.487 32H154.627ZM150.887 24.28H153.007C153.633 24.28 154.1 24.1267 154.407 23.82C154.727 23.5133 154.887 23.08 154.887 22.52C154.887 21.9867 154.727 21.5667 154.407 21.26C154.1 20.9533 153.633 20.8 153.007 20.8H150.887V24.28ZM176.413 17.96V32H172.993V23.58L169.853 32H167.093L163.933 23.56V32H160.513V17.96H164.553L168.493 27.68L172.393 17.96H176.413Z" fill="white"/>
</svg>
