<svg width="21" height="18" viewBox="0 0 21 18" fill="none" xmlns="http://www.w3.org/2000/svg">
<path d="M3.55306 8.99522H3.15257L10.5051 16.183L16.5433 10.2802H18.402L10.5051 18L1.62249 9.3265C1.38289 9.09226 1.17066 8.84129 0.985819 8.57359C0.800978 8.30589 0.640098 8.01811 0.503178 7.71026H2.99853L5.90465 4.87932L10.5051 9.36665L13.7912 6.16429L15.3829 7.71026H19.0284C19.2474 7.36894 19.4152 7.00754 19.5315 6.62607C19.6479 6.2446 19.7061 5.85308 19.7061 5.45153C19.7061 4.86928 19.5966 4.32719 19.3775 3.82525C19.1584 3.32331 18.8538 2.8883 18.4636 2.52021C18.0734 2.15212 17.6215 1.861 17.1081 1.64684C16.5946 1.43268 16.0367 1.3256 15.4342 1.3256C14.8592 1.3256 14.3491 1.4126 13.9042 1.5866C13.4592 1.76061 13.0484 1.99485 12.6719 2.28932C12.2954 2.58379 11.9359 2.90838 11.5936 3.26308C11.2513 3.61778 10.8885 3.98922 10.5051 4.37738C10.1355 4.01599 9.77604 3.65125 9.4269 3.28316C9.07775 2.91507 8.71491 2.58379 8.33839 2.28932C7.96186 1.99485 7.54768 1.75392 7.09584 1.56653C6.64401 1.37914 6.13741 1.28544 5.57604 1.28544C4.98729 1.28544 4.43619 1.39252 3.92274 1.60668C3.40929 1.82084 2.95746 2.11866 2.56724 2.50013C2.17702 2.88161 1.87237 3.32331 1.6533 3.82525C1.43423 4.32719 1.32127 4.86928 1.31443 5.45153C1.31443 5.76608 1.35208 6.09067 1.42738 6.42529H0.0821516C0.0479218 6.26467 0.0273839 6.10405 0.0205379 5.94343C0.0136919 5.78281 0.00684597 5.62219 0 5.46157C0 4.70532 0.143765 3.99591 0.431296 3.33335C0.718826 2.67079 1.11589 2.09189 1.62249 1.59664C2.1291 1.1014 2.72127 0.713231 3.39902 0.432145C4.07677 0.15106 4.80244 0.00717055 5.57604 0.000478037C6.14425 0.000478037 6.65086 0.0640569 7.09584 0.191215C7.54083 0.318373 7.95159 0.492378 8.32812 0.713231C8.70465 0.934084 9.06748 1.20513 9.41663 1.52637C9.76577 1.84761 10.1286 2.19228 10.5051 2.56037C10.8817 2.18558 11.2411 1.84092 11.5834 1.52637C11.9257 1.21182 12.2885 0.944123 12.6719 0.72327C13.0553 0.502417 13.4694 0.325065 13.9144 0.191215C14.3594 0.0573644 14.866 -0.00621448 15.4342 0.000478037C16.201 0.000478037 16.9232 0.141021 17.601 0.422107C18.2787 0.703192 18.8675 1.09136 19.3672 1.5866C19.867 2.08185 20.2641 2.65741 20.5584 3.31327C20.8528 3.96914 21 4.6752 21 5.43146C21 6.08063 20.8836 6.70973 20.6509 7.31874C20.4181 7.92776 20.0861 8.48659 19.6548 8.99522H14.8284L13.7912 7.97126L10.5051 11.1937L5.90465 6.6863L3.55306 8.99522Z" fill="#16610E"/>
</svg>
