<svg width="19" height="19" viewBox="0 0 19 19" fill="none" xmlns="http://www.w3.org/2000/svg">
<path d="M13.7724 14.0423L9.53604 9.80601C9.19778 10.0942 8.80879 10.3172 8.36905 10.4751C7.92932 10.6329 7.48733 10.7119 7.04308 10.7119C5.95976 10.7119 5.04286 10.3369 4.29238 9.58682C3.5419 8.83679 3.16666 7.92012 3.16666 6.83679C3.16666 5.75347 3.54145 4.83634 4.29102 4.08541C5.0406 3.33448 5.95705 2.95856 7.04038 2.95766C8.1237 2.95676 9.04106 3.332 9.79244 4.08338C10.5438 4.83476 10.9195 5.75189 10.9195 6.83476C10.9195 7.30471 10.8363 7.75956 10.6699 8.19929C10.5035 8.63903 10.2847 9.01517 10.0137 9.32772L14.25 13.5634L13.7724 14.0423ZM7.04376 10.0347C7.94127 10.0347 8.69897 9.72573 9.31685 9.10785C9.93473 8.48997 10.2437 7.73205 10.2437 6.83409C10.2437 5.93613 9.93473 5.17843 9.31685 4.561C8.69897 3.94357 7.94127 3.63462 7.04376 3.63417C6.14625 3.63372 5.38833 3.94266 4.77 4.561C4.15166 5.17933 3.84272 5.93703 3.84317 6.83409C3.84362 7.73114 4.15256 8.48884 4.77 9.10717C5.38743 9.72551 6.14512 10.0345 7.04308 10.034" fill="black" fill-opacity="0.4"/>
</svg>
